<?xml version="1.0" encoding="utf-8"?>
<!-- Generator: Adobe Illustrator 18.0.0, SVG Export Plug-In . SVG Version: 6.00 Build 0)  -->
<!DOCTYPE svg PUBLIC "-//W3C//DTD SVG 1.1//EN" "http://www.w3.org/Graphics/SVG/1.1/DTD/svg11.dtd">
<svg version="1.1" xmlns="http://www.w3.org/2000/svg" xmlns:xlink="http://www.w3.org/1999/xlink" x="0px" y="0px"
	 viewBox="0 0 48 48" enable-background="new 0 0 48 48" xml:space="preserve">
<g id="arrow-down.svg_1_">
</g>
<g id="arrow-up.svg_1_">
</g>
<g id="arrow-prev.svg_1_">
</g>
<g id="arrow-next.svg_1_">
</g>
<g id="arrow-nav-next-font.svg">
</g>
<g id="arrow-nav-next.svg_2_">
</g>
<g id="arrow-nav-prev-font.svg">
</g>
<g id="arrow-nav-prev.svg_2_">
</g>
<g id="info-font.svg">
</g>
<g id="info.svg_2_">
	<g id="info.svg">
		<path d="M21.9,28.8l0.9-3.8c0.1-0.6,0.2-0.8,0-0.8c-0.2,0-1.3,0.4-1.9,0.8l-0.4-0.7c1.9-1.6,4.1-2.6,5.1-2.6c0.8,0,0.9,1,0.5,2.4
			l-1.1,4c-0.2,0.7-0.1,1,0.1,1c0.2,0,1-0.3,1.8-0.9l0.5,0.6c-1.9,1.9-3.9,2.7-4.7,2.7C21.9,31.5,21.4,31,21.9,28.8z M27.3,17.9
			c0,1-0.9,1.9-2,1.9c-1,0-1.5-0.6-1.5-1.5c0-0.8,0.7-1.9,2-1.9C26.8,16.5,27.3,17.2,27.3,17.9z"/>
	</g>
</g>
<g id="arrow-nav-up-font.svg">
</g>
<g id="arrow-nav-up.svg_2_">
</g>
<g id="arrow-nav-down-font.svg">
</g>
<g id="arrow-nav-down.svg_2_">
</g>
</svg>
